<?xml version="1.0" encoding="UTF-8"?>
<svg id="Layer_2" data-name="Layer 2" xmlns="http://www.w3.org/2000/svg" viewBox="0 0 1024 1024">
  <defs>
    <style>
      .cls-1 {
        fill: #fff;
        stroke: #c5a8dd;
        stroke-miterlimit: 10;
      }

      .cls-2 {
        fill: #edd7f1;
      }

      .cls-3 {
        fill: #ff4c94;
      }

      .cls-4 {
        fill: #ce91d8;
      }

      .cls-5 {
        fill: #d8a9e0;
      }

      .cls-6 {
        fill: #1a1a1a;
      }

      .cls-7 {
        fill: #9d66ff;
      }

      .cls-8 {
        fill: #d7ff5c;
      }
    </style>
  </defs>
  <g id="Layer_2-2" data-name="Layer 2">
    <rect class="cls-6" width="1024" height="1024" rx="150" ry="150"/>
  </g>
  <g id="Layer_1-2" data-name="Layer 1">
    <path class="cls-3" d="M717.27,357.88l138.76-94.38c8.45-7.04,11.97,0,8.45,4.93-24.65,33.81-66.21,89.45-64.8,90.86,1.41,2.11,32.4-4.93,49.3-9.16,3.52,0,5.63,3.52,2.82,5.63l-80.3,79.59-53.53-77.48h-.7Z"/>
    <g>
      <path class="cls-2" d="M222.82,536.08l-4.23-75.37,15.5-39.44s16.9-26.06,41.56-44.37c24.65-17.61,112.7-30.29,112.7-30.29l59.17,22.54,19.02-47.19,45.78-36.63s26.06-9.86,50.01-8.45,58.46,20.43,58.46,20.43l26.06,37.33,10.57,26.06,66.91,6.34,30.29,42.97-1.41,55.64,66.91,90.16-53.53,92.97-172.57,149.32-162,16.9-89.45-66.21-80.3-114.11-39.44-99.31h-.7s.7.7.7.7Z"/>
      <path class="cls-4" d="M239.02,614.27s-30.99-45.08-32.4-92.97c-1.41-54.24,23.95-100.72,28.88-100.02,2.11,0-21.13,42.26,1.41,131.71,17.61,68.32,71.84,95.09,71.84,95.09,0,0-17.61,104.24,117.63,141.58,159.18,44.37,223.98-64.1,229.62-91.57,4.23-16.2,0-30.99,23.24-35.22,38.04-7.04,66.91-9.16,88.04-67.62,30.29-84.52-46.49-116.22-46.49-116.22,0,0,23.24-37.33,0-76.77-23.24-39.44-66.91-23.95-71.84-21.83s-7.75-1.41-7.04-7.04,7.04-39.44-29.58-66.21c-36.63-26.77-61.28-24.65-60.57-28.88s47.9,0,74.66,19.72c31.7,22.54,35.92,55.64,35.92,55.64,0,0,61.98-20.43,95.79,36.63,28.17,47.9,5.63,74.66,5.63,74.66,0,0,91.57,4.93,83.82,123.97-7.04,100.72-111.29,116.92-111.29,116.92,0,0,19.72,86.64-54.94,121.15-100.02,45.78-166.23-12.68-166.23-12.68,0,0-67.62,66.21-169.75,19.72-92.27-42.97-62.69-133.12-62.69-133.12,0,0-35.22,7.75-52.83-24.65-17.61-32.4,7.75-61.98,7.75-61.98h1.41Z"/>
      <path class="cls-5" d="M267.19,384.65c1.41,2.11,59.87-25.36,102.84-21.83,52.83,3.52,74.66,24.65,81.71,22.54,4.93-1.41,7.04-36.63,32.4-64.1,23.95-27.47,47.9-34.51,47.9-39.44s-41.56,8.45-60.57,28.88c-21.83,22.54-27.47,47.9-30.29,48.6s-30.99-22.54-73.25-18.31c-42.26,4.23-102.13,41.56-100.02,44.37h0s-.7-.7-.7-.7Z"/>
      <path class="cls-5" d="M522.17,386.76c-4.93-11.97,32.4-35.92,71.84-14.09,39.44,21.83,43.67,60.57,32.4,63.39-11.97,1.41-14.09-21.83-49.3-37.33-35.22-14.09-50.71-1.41-54.94-11.97h0Z"/>
      <path class="cls-5" d="M478.5,419.86c0,7.75-24.65,7.75-38.04,21.13-13.38,13.38-21.83,35.92-28.88,36.63-10.57,0-14.79-36.63,8.45-57.76,23.24-21.13,56.35-17.61,57.76,0h.7Z"/>
      <path class="cls-5" d="M556.68,599.47c0,13.38,39.44,15.5,69.03-11.27,30.29-28.17,25.36-78.18,12.68-76.77-9.16,0-9.86,32.4-33.81,53.53-28.88,24.65-48.6,26.06-48.6,35.22l.7-.7Z"/>
      <path class="cls-4" d="M369.32,563.55c-5.63,3.52-3.52,38.04,21.13,56.35,16.9,11.97,38.04,8.45,38.04,8.45,0,0,8.45,42.26,46.49,57.05,52.12,19.72,104.24-19.72,89.45-34.51-7.75-7.75-35.92,16.2-69.73-1.41-35.92-18.31-30.29-52.12-37.33-57.05-6.34-4.93-36.63,10.57-56.35,0-24.65-14.79-25.36-31.7-31.7-28.17h0v-1.41h0v.7Z"/>
      <path class="cls-5" d="M323.54,443.11c-11.27-5.63-49.3,27.47-42.97,83.82,6.34,56.35,37.33,82.41,46.49,76.07s-15.5-41.56-12.68-88.75c2.82-47.9,19.72-65.5,9.16-71.14h0Z"/>
    </g>
    <path class="cls-7" d="M154.5,657.23c-30.99-14.79-23.24-35.92-17.61-45.78,40.85-64.1,318.37-119.04,375.42-128.19,295.12-50.01,367.67-21.13,388.1-11.97,15.5,7.75,22.54,16.2,23.24,34.51.7,18.31-11.97,30.99-30.99,41.56-19.02,10.57-45.08,19.02-45.08,19.02,0,0,0-11.97-3.52-27.47,0,0,67.62-22.54,54.94-37.33-30.99-27.47-183.13-17.61-377.53,16.2-190.88,33.81-347.95,81.71-362.04,105.65-3.52,5.63,4.23,11.97,11.97,14.79,24.65,10.57,52.12,7.04,52.12,7.04-1.41,13.38,2.82,26.06,2.82,26.06,0,0-38.74,2.82-73.25-14.09h0l.7-.7s.7.7.7.7Z"/>
    <path class="cls-3" d="M410.88,617.79l-52.83,108.47c-2.11,4.93,3.52,10.57,8.45,7.75l128.9-66.91-66.91-59.87-16.9,10.57h-.7Z"/>
    <path class="cls-3" d="M495.4,776.97c0,2.82,25.36,148.62,26.06,152.84s9.86,7.75,13.38,0,39.44-176.79,40.85-183.13c1.41-6.34-3.52-9.16-9.16-7.75-5.63,1.41-20.43,9.86-34.51,14.79-15.5,6.34-36.63,9.16-37.33,11.27v12.68h0l.7-.7Z"/>
    <path class="cls-7" d="M808.84,872.76c-39.44,0-97.91-45.78-110.58-56.35,0,0,5.63-4.23,9.86-7.75,4.23-3.52,9.16-9.16,9.16-9.16,47.9,40.85,92.27,57.05,102.13,50.71,6.34-20.43-91.57-156.37-302.87-328.23-212.72-173.27-316.96-188.77-337.39-168.34-18.31,18.31,13.38,66.21,31.7,88.75l7.75,9.16s-2.11,7.04-4.23,13.38c-1.41,6.34-4.23,17.61-4.23,17.61l-19.72-23.95c-7.04-9.16-69.03-82.41-30.29-121.85,47.9-47.9,188.06,2.82,374.72,158.48,31.7,26.77,62.69,53.53,91.57,80.3,124.67,115.51,214.83,223.98,214.83,268.36,0,0,3.52,11.27-9.16,21.13-6.34,5.63-14.09,7.75-23.24,7.75h0Z"/>
    <path class="cls-3" d="M409.47,350.13l-3.52-94.38c0-4.23,2.11-7.75,4.93-8.45s7.04,1.41,9.16,4.93l43.67,78.89-14.79,39.44-39.44-20.43h0Z"/>
    <path class="cls-3" d="M648.25,323.37l45.08-50.71c2.82-3.52,9.16-1.41,8.45,2.82l-14.09,85.93-29.58,2.11-9.86-40.15h0Z"/>
    <path class="cls-8" d="M651.77,271.25s-4.23,8.45-13.38,4.93-5.63-13.38-5.63-13.38l71.84-169.75s2.11-7.75,14.79,0c11.97,7.04,7.75,15.5,7.75,15.5l-75.37,163.41h0v-.7h0Z"/>
    <path class="cls-8" d="M744.74,308.58s-6.34,9.16-15.5,1.41-1.41-15.5-1.41-15.5l83.11-102.84s3.52-4.23,11.97,1.41,3.52,11.27,3.52,11.27l-81.71,103.54h0s0,.7,0,.7Z"/>
    <path class="cls-8" d="M371.44,903.05s-5.63,9.16-14.79,3.52c-9.16-4.93-4.23-13.38-4.23-13.38,0,0,83.82-145.8,84.52-147.91s6.34-8.45,14.09-3.52c7.75,5.63,1.41,16.2,1.41,16.2l-80.3,145.1h-.7Z"/>
    <path class="cls-8" d="M919.42,714.28c-9.16-3.52-87.34-32.4-87.34-32.4,0,0-4.93-1.41-5.63-4.23-1.41-7.04,4.93-10.57,4.93-10.57l23.24-17.61-69.03-21.13s-9.16-2.82-5.63-11.97c2.82-9.86,10.57-6.34,10.57-6.34,0,0,83.11,25.36,86.64,26.06,4.23,1.41,7.75,2.82,7.75,7.04s-1.41,4.23-4.93,7.75-23.24,19.72-23.24,19.72c0,0,50.71,16.9,67.62,21.13,16.9,4.93,6.34,25.36-2.82,21.83h-2.11v.7Z"/>
    <path class="cls-8" d="M148.86,533.97l-59.17-25.36s-3.52-4.23-1.41-9.86,7.75-8.45,10.57-7.04c2.11,0,43.67,16.9,43.67,16.9l-3.52-29.58s0-3.52,2.11-5.63c2.82-3.52,7.04-1.41,11.27,0l91.57,41.56s4.93,2.82,0,10.57c-3.52,6.34-8.45,3.52-8.45,3.52l-72.55-32.4,2.11,30.29c0,3.52,0,7.04-3.52,9.16s-8.45,0-12.68-2.11h.7-.7Z"/>
    <path class="cls-7" d="M538.23,253.71c-9.8,0-19.59-2.12-28.85-6.35-19.53-8.95-34.99-25.85-42.42-46.36-6.52-18-5.93-36.66,1.66-52.54,1.69-3.51,5.89-4.98,9.4-3.32,3.51,1.68,4.99,5.88,3.32,9.4-5.95,12.44-6.35,27.24-1.13,41.66,6.06,16.74,19.16,31.07,35.04,38.35,13.94,6.37,29.4,6.74,43.56,1.04,13.23-5.33,23.68-15.61,28.66-28.21,4.95-10.49,5.41-21.84,1.49-32.39-4.24-11.38-12.93-20.67-23.84-25.48-10.9-4.8-22.85-5.03-32.82-.63-8.13,3.6-14.1,10.08-16.82,18.25-4.2,12.09-.94,27.99,13.37,35.14,10.15,4.57,23.08,3.99,28.48-7.88,1.41-3.71,1.46-8.26-.03-11.5-1.1-2.38-2.99-4.02-5.76-5-1.9-.82-4.53-.8-6.7.44-2.1,1.21-3.34,3.35-3.67,6.37-.43,3.87-3.98,6.68-7.78,6.22-3.87-.43-6.65-3.91-6.22-7.78.84-7.52,4.63-13.57,10.67-17.03,5.8-3.33,13.23-3.83,18.92-1.3,5.85,2.04,10.65,6.32,13.35,12.18,3.07,6.67,3.16,15.21.23,22.85-9.11,20.05-30.75,22.71-47.51,15.16-19.3-9.64-27.89-31.63-20.66-52.4,3.96-11.89,12.66-21.36,24.46-26.59,13.57-6.01,29.68-5.78,44.2.62,14.37,6.34,25.8,18.53,31.36,33.46,5.27,14.14,4.64,29.38-1.77,42.91-6.2,15.75-19.51,28.91-36.31,35.67-8.36,3.37-17.11,5.06-25.84,5.06Z"/>
    <path class="cls-1" d="M353.18,168.84c-9.02-27.07-65.9.39-65.9.39,0,0,8.45-62.36-20.26-62.36s-20.26,62.36-20.26,62.36c0,0-56.91-26.64-65.57,0-8.98,27.64,53.04,38.54,53.04,38.54,0,0-42.92,45.89-20.26,62.36,23.51,17.08,53.04-38.54,53.04-38.54,0,0,30.15,55.17,53.04,38.54,23.28-16.92-20.26-62.36-20.26-62.36,0,0,62.4-11.85,53.38-38.93Z"/>
    <circle class="cls-3" cx="267.19" cy="198.44" r="20.55"/>
    <path class="cls-1" d="M206.88,749.22c-19.23-12.72-41.71,33.1-41.71,33.1,0,0-25.71-43.86-43.97-29.55-18.04,14.14,18.2,49.75,18.2,49.75,0,0-49.46,11.43-41.69,32.68,8.07,22.05,52.94-1.94,52.94-1.94,0,0-4.42,50.58,18.2,49.75,23.47-.86,14.52-50.94,14.52-50.94,0,0,46.67,20.05,52.94-1.94,6.37-22.36-43.97-29.55-43.97-29.55,0,0,33.77-38.64,14.54-51.36Z"/>
    <circle class="cls-3" cx="166.96" cy="810.91" r="16.6"/>
  </g>
</svg>